<svg xmlns="http://www.w3.org/2000/svg" xmlns:xlink="http://www.w3.org/1999/xlink" width="1000" zoomAndPan="magnify" viewBox="0 0 375 374.999991" height="1000" preserveAspectRatio="xMidYMid meet" version="1.0"><defs><g/><clipPath id="a92bd31a42"><path d="M 147.132812 111.390625 L 228.132812 111.390625 L 228.132812 188.640625 L 147.132812 188.640625 Z M 147.132812 111.390625 " clip-rule="nonzero"/></clipPath><clipPath id="a64d864863"><path d="M 190.394531 155.765625 L 190.394531 121.285156 C 190.394531 119.945312 191.667969 118.980469 192.957031 119.339844 L 226.65625 128.804688 C 227.527344 129.050781 228.128906 129.84375 228.128906 130.75 L 228.128906 165.230469 C 228.128906 166.566406 226.851562 167.535156 225.566406 167.175781 L 191.867188 157.707031 C 190.996094 157.464844 190.394531 156.667969 190.394531 155.765625 Z M 164.957031 133.367188 L 182.308594 138.242188 C 183.59375 138.605469 184.867188 137.636719 184.867188 136.300781 L 184.867188 118.574219 C 184.867188 117.667969 184.265625 116.875 183.398438 116.632812 L 166.046875 111.757812 C 164.757812 111.394531 163.484375 112.363281 163.484375 113.699219 L 163.484375 131.425781 C 163.484375 132.332031 164.085938 133.125 164.957031 133.367188 Z M 183.398438 142.339844 L 149.695312 132.871094 C 148.410156 132.511719 147.136719 133.480469 147.136719 134.816406 L 147.136719 169.296875 C 147.136719 170.203125 147.738281 170.996094 148.605469 171.238281 L 182.308594 180.707031 C 183.59375 181.066406 184.867188 180.101562 184.867188 178.761719 L 184.867188 144.28125 C 184.867188 143.378906 184.265625 142.582031 183.398438 142.339844 Z M 210.308594 166.675781 L 192.957031 161.804688 C 191.667969 161.441406 190.394531 162.410156 190.394531 163.746094 L 190.394531 181.472656 C 190.394531 182.375 190.996094 183.171875 191.867188 183.414062 L 209.21875 188.289062 C 210.503906 188.652344 211.777344 187.683594 211.777344 186.347656 L 211.777344 168.621094 C 211.777344 167.714844 211.175781 166.921875 210.308594 166.675781 Z M 210.308594 166.675781 " clip-rule="nonzero"/></clipPath><linearGradient x1="114.296455" gradientTransform="matrix(0.00000000000000001, 0.162154, -0.161984, 0.00000000000000001, 228.127239, 111.680597)" y1="-47.633938" x2="358.610875" gradientUnits="userSpaceOnUse" y2="547.607279" id="01e6f21d6f"><stop stop-opacity="1" stop-color="rgb(77.598572%, 30.999756%, 100%)" offset="0"/><stop stop-opacity="1" stop-color="rgb(77.598572%, 30.999756%, 100%)" offset="0.0625"/><stop stop-opacity="1" stop-color="rgb(77.540588%, 30.987549%, 100%)" offset="0.09375"/><stop stop-opacity="1" stop-color="rgb(77.328491%, 30.941772%, 100%)" offset="0.101562"/><stop stop-opacity="1" stop-color="rgb(77.018738%, 30.874634%, 100%)" offset="0.109375"/><stop stop-opacity="1" stop-color="rgb(76.708984%, 30.809021%, 100%)" offset="0.117187"/><stop stop-opacity="1" stop-color="rgb(76.399231%, 30.741882%, 100%)" offset="0.125"/><stop stop-opacity="1" stop-color="rgb(76.089478%, 30.674744%, 100%)" offset="0.132812"/><stop stop-opacity="1" stop-color="rgb(75.779724%, 30.609131%, 100%)" offset="0.140625"/><stop stop-opacity="1" stop-color="rgb(75.469971%, 30.541992%, 100%)" offset="0.148438"/><stop stop-opacity="1" stop-color="rgb(75.160217%, 30.476379%, 100%)" offset="0.15625"/><stop stop-opacity="1" stop-color="rgb(74.850464%, 30.409241%, 100%)" offset="0.164062"/><stop stop-opacity="1" stop-color="rgb(74.54071%, 30.343628%, 100%)" offset="0.171875"/><stop stop-opacity="1" stop-color="rgb(74.230957%, 30.276489%, 100%)" offset="0.179687"/><stop stop-opacity="1" stop-color="rgb(73.919678%, 30.210876%, 100%)" offset="0.1875"/><stop stop-opacity="1" stop-color="rgb(73.609924%, 30.143738%, 100%)" offset="0.195312"/><stop stop-opacity="1" stop-color="rgb(73.300171%, 30.078125%, 100%)" offset="0.203125"/><stop stop-opacity="1" stop-color="rgb(72.990417%, 30.010986%, 100%)" offset="0.210937"/><stop stop-opacity="1" stop-color="rgb(72.680664%, 29.945374%, 100%)" offset="0.21875"/><stop stop-opacity="1" stop-color="rgb(72.370911%, 29.878235%, 100%)" offset="0.226562"/><stop stop-opacity="1" stop-color="rgb(72.061157%, 29.812622%, 100%)" offset="0.234375"/><stop stop-opacity="1" stop-color="rgb(71.751404%, 29.745483%, 100%)" offset="0.242187"/><stop stop-opacity="1" stop-color="rgb(71.44165%, 29.679871%, 100%)" offset="0.25"/><stop stop-opacity="1" stop-color="rgb(71.131897%, 29.612732%, 100%)" offset="0.257812"/><stop stop-opacity="1" stop-color="rgb(70.822144%, 29.547119%, 100%)" offset="0.265625"/><stop stop-opacity="1" stop-color="rgb(70.51239%, 29.47998%, 100%)" offset="0.273438"/><stop stop-opacity="1" stop-color="rgb(70.201111%, 29.414368%, 100%)" offset="0.281113"/><stop stop-opacity="1" stop-color="rgb(70.046997%, 29.380798%, 100%)" offset="0.28125"/><stop stop-opacity="1" stop-color="rgb(69.891357%, 29.347229%, 100%)" offset="0.289062"/><stop stop-opacity="1" stop-color="rgb(69.581604%, 29.281616%, 100%)" offset="0.296875"/><stop stop-opacity="1" stop-color="rgb(69.271851%, 29.214478%, 100%)" offset="0.304688"/><stop stop-opacity="1" stop-color="rgb(68.962097%, 29.148865%, 100%)" offset="0.3125"/><stop stop-opacity="1" stop-color="rgb(68.652344%, 29.081726%, 100%)" offset="0.320312"/><stop stop-opacity="1" stop-color="rgb(68.34259%, 29.016113%, 100%)" offset="0.328125"/><stop stop-opacity="1" stop-color="rgb(68.032837%, 28.948975%, 100%)" offset="0.335938"/><stop stop-opacity="1" stop-color="rgb(67.723083%, 28.883362%, 100%)" offset="0.34375"/><stop stop-opacity="1" stop-color="rgb(67.41333%, 28.816223%, 100%)" offset="0.351562"/><stop stop-opacity="1" stop-color="rgb(67.103577%, 28.75061%, 100%)" offset="0.359375"/><stop stop-opacity="1" stop-color="rgb(66.793823%, 28.683472%, 100%)" offset="0.367188"/><stop stop-opacity="1" stop-color="rgb(66.48407%, 28.616333%, 100%)" offset="0.375"/><stop stop-opacity="1" stop-color="rgb(66.172791%, 28.55072%, 100%)" offset="0.382812"/><stop stop-opacity="1" stop-color="rgb(65.863037%, 28.483582%, 100%)" offset="0.390625"/><stop stop-opacity="1" stop-color="rgb(65.553284%, 28.417969%, 100%)" offset="0.398438"/><stop stop-opacity="1" stop-color="rgb(65.24353%, 28.35083%, 100%)" offset="0.40625"/><stop stop-opacity="1" stop-color="rgb(64.933777%, 28.285217%, 100%)" offset="0.414062"/><stop stop-opacity="1" stop-color="rgb(64.624023%, 28.218079%, 100%)" offset="0.421875"/><stop stop-opacity="1" stop-color="rgb(64.31427%, 28.152466%, 100%)" offset="0.429688"/><stop stop-opacity="1" stop-color="rgb(64.004517%, 28.085327%, 100%)" offset="0.4375"/><stop stop-opacity="1" stop-color="rgb(63.694763%, 28.019714%, 100%)" offset="0.445312"/><stop stop-opacity="1" stop-color="rgb(63.38501%, 27.952576%, 100%)" offset="0.453125"/><stop stop-opacity="1" stop-color="rgb(63.075256%, 27.886963%, 100%)" offset="0.460938"/><stop stop-opacity="1" stop-color="rgb(62.765503%, 27.819824%, 100%)" offset="0.46875"/><stop stop-opacity="1" stop-color="rgb(62.45575%, 27.754211%, 100%)" offset="0.476562"/><stop stop-opacity="1" stop-color="rgb(62.14447%, 27.687073%, 100%)" offset="0.484375"/><stop stop-opacity="1" stop-color="rgb(61.834717%, 27.62146%, 100%)" offset="0.492188"/><stop stop-opacity="1" stop-color="rgb(61.524963%, 27.554321%, 100%)" offset="0.5"/><stop stop-opacity="1" stop-color="rgb(61.21521%, 27.488708%, 100%)" offset="0.507812"/><stop stop-opacity="1" stop-color="rgb(60.905457%, 27.42157%, 100%)" offset="0.515625"/><stop stop-opacity="1" stop-color="rgb(60.595703%, 27.355957%, 100%)" offset="0.523438"/><stop stop-opacity="1" stop-color="rgb(60.28595%, 27.288818%, 100%)" offset="0.53125"/><stop stop-opacity="1" stop-color="rgb(59.976196%, 27.223206%, 100%)" offset="0.539062"/><stop stop-opacity="1" stop-color="rgb(59.666443%, 27.156067%, 100%)" offset="0.546875"/><stop stop-opacity="1" stop-color="rgb(59.356689%, 27.090454%, 100%)" offset="0.554688"/><stop stop-opacity="1" stop-color="rgb(59.046936%, 27.023315%, 100%)" offset="0.5625"/><stop stop-opacity="1" stop-color="rgb(58.737183%, 26.957703%, 100%)" offset="0.570312"/><stop stop-opacity="1" stop-color="rgb(58.425903%, 26.890564%, 100%)" offset="0.578125"/><stop stop-opacity="1" stop-color="rgb(58.11615%, 26.824951%, 100%)" offset="0.585938"/><stop stop-opacity="1" stop-color="rgb(57.806396%, 26.757812%, 100%)" offset="0.59375"/><stop stop-opacity="1" stop-color="rgb(57.496643%, 26.690674%, 100%)" offset="0.601562"/><stop stop-opacity="1" stop-color="rgb(57.18689%, 26.625061%, 100%)" offset="0.609375"/><stop stop-opacity="1" stop-color="rgb(56.877136%, 26.557922%, 100%)" offset="0.617188"/><stop stop-opacity="1" stop-color="rgb(56.567383%, 26.49231%, 100%)" offset="0.625"/><stop stop-opacity="1" stop-color="rgb(56.257629%, 26.425171%, 100%)" offset="0.632812"/><stop stop-opacity="1" stop-color="rgb(55.947876%, 26.359558%, 100%)" offset="0.640625"/><stop stop-opacity="1" stop-color="rgb(55.638123%, 26.292419%, 100%)" offset="0.648438"/><stop stop-opacity="1" stop-color="rgb(55.328369%, 26.226807%, 100%)" offset="0.65625"/><stop stop-opacity="1" stop-color="rgb(55.018616%, 26.159668%, 100%)" offset="0.664062"/><stop stop-opacity="1" stop-color="rgb(54.708862%, 26.094055%, 100%)" offset="0.671875"/><stop stop-opacity="1" stop-color="rgb(54.397583%, 26.026917%, 100%)" offset="0.679688"/><stop stop-opacity="1" stop-color="rgb(54.08783%, 25.961304%, 100%)" offset="0.6875"/><stop stop-opacity="1" stop-color="rgb(53.778076%, 25.894165%, 100%)" offset="0.695312"/><stop stop-opacity="1" stop-color="rgb(53.468323%, 25.828552%, 100%)" offset="0.703125"/><stop stop-opacity="1" stop-color="rgb(53.158569%, 25.761414%, 100%)" offset="0.710938"/><stop stop-opacity="1" stop-color="rgb(52.848816%, 25.695801%, 100%)" offset="0.71875"/><stop stop-opacity="1" stop-color="rgb(52.539062%, 25.628662%, 100%)" offset="0.718887"/><stop stop-opacity="1" stop-color="rgb(52.384949%, 25.596619%, 100%)" offset="0.726562"/><stop stop-opacity="1" stop-color="rgb(52.229309%, 25.563049%, 100%)" offset="0.734375"/><stop stop-opacity="1" stop-color="rgb(51.919556%, 25.495911%, 100%)" offset="0.742188"/><stop stop-opacity="1" stop-color="rgb(51.609802%, 25.430298%, 100%)" offset="0.75"/><stop stop-opacity="1" stop-color="rgb(51.300049%, 25.363159%, 100%)" offset="0.757812"/><stop stop-opacity="1" stop-color="rgb(50.990295%, 25.297546%, 100%)" offset="0.765625"/><stop stop-opacity="1" stop-color="rgb(50.679016%, 25.230408%, 100%)" offset="0.773437"/><stop stop-opacity="1" stop-color="rgb(50.369263%, 25.164795%, 100%)" offset="0.78125"/><stop stop-opacity="1" stop-color="rgb(50.059509%, 25.097656%, 100%)" offset="0.789062"/><stop stop-opacity="1" stop-color="rgb(49.749756%, 25.032043%, 100%)" offset="0.796875"/><stop stop-opacity="1" stop-color="rgb(49.440002%, 24.964905%, 100%)" offset="0.804687"/><stop stop-opacity="1" stop-color="rgb(49.130249%, 24.899292%, 100%)" offset="0.8125"/><stop stop-opacity="1" stop-color="rgb(48.820496%, 24.832153%, 100%)" offset="0.820312"/><stop stop-opacity="1" stop-color="rgb(48.510742%, 24.765015%, 100%)" offset="0.828125"/><stop stop-opacity="1" stop-color="rgb(48.277283%, 24.716187%, 100%)" offset="0.84375"/><stop stop-opacity="1" stop-color="rgb(48.199463%, 24.699402%, 100%)" offset="0.875"/><stop stop-opacity="1" stop-color="rgb(48.199463%, 24.699402%, 100%)" offset="1"/></linearGradient></defs><g fill="#ffffff" fill-opacity="1"><g transform="translate(79.038138, 236.228744)"><g><path d="M 30.453125 -0.921875 C 30.535156 -0.742188 30.578125 -0.597656 30.578125 -0.484375 C 30.578125 -0.160156 30.390625 0 30.015625 0 L 24.46875 0 C 23.90625 0 23.535156 -0.191406 23.359375 -0.578125 L 15.359375 -15.265625 C 15.265625 -15.410156 15.160156 -15.484375 15.046875 -15.484375 C 14.929688 -15.484375 14.785156 -15.367188 14.609375 -15.140625 L 10.296875 -10.078125 C 10.085938 -9.867188 9.984375 -9.578125 9.984375 -9.203125 L 9.984375 -0.875 C 9.984375 -0.289062 9.644531 0 8.96875 0 L 4.359375 0 C 4.035156 0 3.804688 -0.0546875 3.671875 -0.171875 C 3.535156 -0.296875 3.46875 -0.503906 3.46875 -0.796875 L 3.46875 -31.9375 C 3.46875 -32.144531 3.523438 -32.3125 3.640625 -32.4375 C 3.765625 -32.570312 3.914062 -32.640625 4.09375 -32.640625 L 9.375 -32.640625 C 9.78125 -32.640625 9.984375 -32.421875 9.984375 -31.984375 L 9.984375 -17.8125 C 9.984375 -17.550781 10.039062 -17.421875 10.15625 -17.421875 C 10.21875 -17.421875 10.320312 -17.492188 10.46875 -17.640625 L 22.4375 -32.03125 C 22.613281 -32.269531 22.78125 -32.429688 22.9375 -32.515625 C 23.101562 -32.597656 23.363281 -32.640625 23.71875 -32.640625 L 28.203125 -32.640625 C 28.410156 -32.640625 28.585938 -32.597656 28.734375 -32.515625 C 28.878906 -32.429688 28.953125 -32.3125 28.953125 -32.15625 C 28.953125 -32.007812 28.894531 -31.878906 28.78125 -31.765625 L 19.71875 -21.34375 C 19.59375 -21.195312 19.53125 -21.050781 19.53125 -20.90625 C 19.53125 -20.78125 19.578125 -20.628906 19.671875 -20.453125 Z M 30.453125 -0.921875 "/></g></g></g><g fill="#ffffff" fill-opacity="1"><g transform="translate(111.108418, 236.228744)"><g><path d="M 13.15625 0.4375 C 10.894531 0.4375 8.882812 -0.0664062 7.125 -1.078125 C 5.363281 -2.085938 4 -3.5 3.03125 -5.3125 C 2.0625 -7.132812 1.578125 -9.207031 1.578125 -11.53125 C 1.578125 -13.90625 2.078125 -16.023438 3.078125 -17.890625 C 4.078125 -19.753906 5.457031 -21.195312 7.21875 -22.21875 C 8.976562 -23.25 10.972656 -23.765625 13.203125 -23.765625 C 15.460938 -23.765625 17.472656 -23.242188 19.234375 -22.203125 C 20.992188 -21.160156 22.351562 -19.710938 23.3125 -17.859375 C 24.28125 -16.015625 24.765625 -13.921875 24.765625 -11.578125 C 24.765625 -9.253906 24.273438 -7.179688 23.296875 -5.359375 C 22.316406 -3.546875 20.945312 -2.125 19.1875 -1.09375 C 17.425781 -0.0703125 15.414062 0.4375 13.15625 0.4375 Z M 13.203125 -3.46875 C 15.078125 -3.46875 16.503906 -4.171875 17.484375 -5.578125 C 18.472656 -6.992188 18.96875 -9.019531 18.96875 -11.65625 C 18.96875 -14.320312 18.46875 -16.375 17.46875 -17.8125 C 16.46875 -19.25 15.046875 -19.96875 13.203125 -19.96875 C 11.347656 -19.96875 9.914062 -19.25 8.90625 -17.8125 C 7.894531 -16.375 7.390625 -14.320312 7.390625 -11.65625 C 7.390625 -9.019531 7.894531 -6.992188 8.90625 -5.578125 C 9.914062 -4.171875 11.347656 -3.46875 13.203125 -3.46875 Z M 13.203125 -3.46875 "/></g></g></g><g fill="#ffffff" fill-opacity="1"><g transform="translate(137.45972, 236.228744)"><g><path d="M 19.09375 0 C 18.539062 0 18.265625 -0.265625 18.265625 -0.796875 L 18.265625 -2.25 C 18.265625 -2.507812 18.191406 -2.640625 18.046875 -2.640625 C 17.953125 -2.640625 17.832031 -2.566406 17.6875 -2.421875 C 16.832031 -1.597656 15.882812 -0.914062 14.84375 -0.375 C 13.800781 0.164062 12.535156 0.4375 11.046875 0.4375 C 9.222656 0.4375 7.609375 -0.0078125 6.203125 -0.90625 C 4.796875 -1.800781 3.6875 -3.132812 2.875 -4.90625 C 2.070312 -6.675781 1.671875 -8.851562 1.671875 -11.4375 C 1.671875 -13.84375 2.101562 -15.984375 2.96875 -17.859375 C 3.832031 -19.742188 5.007812 -21.195312 6.5 -22.21875 C 8 -23.25 9.675781 -23.765625 11.53125 -23.765625 C 12.757812 -23.765625 13.832031 -23.566406 14.75 -23.171875 C 15.675781 -22.773438 16.566406 -22.191406 17.421875 -21.421875 C 17.566406 -21.273438 17.726562 -21.203125 17.90625 -21.203125 C 18.082031 -21.203125 18.171875 -21.394531 18.171875 -21.78125 L 18.171875 -31.9375 C 18.171875 -32.40625 18.375 -32.640625 18.78125 -32.640625 L 23.234375 -32.640625 C 23.671875 -32.640625 23.890625 -32.394531 23.890625 -31.90625 L 23.890625 -0.84375 C 23.890625 -0.539062 23.820312 -0.320312 23.6875 -0.1875 C 23.5625 -0.0625 23.320312 0 22.96875 0 Z M 18.171875 -17.5625 C 17.378906 -18.375 16.609375 -18.976562 15.859375 -19.375 C 15.109375 -19.769531 14.265625 -19.96875 13.328125 -19.96875 C 11.566406 -19.96875 10.148438 -19.253906 9.078125 -17.828125 C 8.015625 -16.410156 7.484375 -14.3125 7.484375 -11.53125 C 7.484375 -8.707031 8.003906 -6.617188 9.046875 -5.265625 C 10.085938 -3.921875 11.472656 -3.25 13.203125 -3.25 C 14.109375 -3.25 14.941406 -3.460938 15.703125 -3.890625 C 16.472656 -4.316406 17.078125 -4.867188 17.515625 -5.546875 C 17.953125 -6.222656 18.171875 -6.910156 18.171875 -7.609375 Z M 18.171875 -17.5625 "/></g></g></g><g fill="#ffffff" fill-opacity="1"><g transform="translate(164.118971, 236.228744)"><g><path d="M 7.53125 -9.859375 C 7.53125 -8.648438 7.804688 -7.566406 8.359375 -6.609375 C 8.921875 -5.660156 9.691406 -4.914062 10.671875 -4.375 C 11.648438 -3.832031 12.726562 -3.5625 13.90625 -3.5625 C 15.101562 -3.5625 16.191406 -3.816406 17.171875 -4.328125 C 18.160156 -4.847656 19.09375 -5.648438 19.96875 -6.734375 C 20.125 -6.878906 20.242188 -6.953125 20.328125 -6.953125 C 20.410156 -6.953125 20.539062 -6.90625 20.71875 -6.8125 L 23.40625 -5.625 C 23.613281 -5.539062 23.71875 -5.410156 23.71875 -5.234375 C 23.71875 -5.148438 23.660156 -5.019531 23.546875 -4.84375 C 22.222656 -2.9375 20.757812 -1.578125 19.15625 -0.765625 C 17.5625 0.0351562 15.59375 0.4375 13.25 0.4375 C 11.019531 0.4375 9.015625 -0.0546875 7.234375 -1.046875 C 5.460938 -2.046875 4.078125 -3.441406 3.078125 -5.234375 C 2.078125 -7.023438 1.578125 -9.066406 1.578125 -11.359375 C 1.578125 -13.816406 2.085938 -15.984375 3.109375 -17.859375 C 4.140625 -19.742188 5.535156 -21.195312 7.296875 -22.21875 C 9.054688 -23.25 11.007812 -23.765625 13.15625 -23.765625 C 15.351562 -23.765625 17.296875 -23.28125 18.984375 -22.3125 C 20.671875 -21.34375 21.972656 -19.941406 22.890625 -18.109375 C 23.816406 -16.273438 24.28125 -14.097656 24.28125 -11.578125 L 24.28125 -11.390625 C 24.28125 -11.097656 24.238281 -10.894531 24.15625 -10.78125 C 24.070312 -10.664062 23.878906 -10.59375 23.578125 -10.5625 L 8.015625 -10.5625 C 7.691406 -10.5625 7.53125 -10.328125 7.53125 -9.859375 Z M 17.953125 -13.8125 C 18.242188 -13.8125 18.441406 -13.847656 18.546875 -13.921875 C 18.648438 -13.992188 18.703125 -14.164062 18.703125 -14.4375 C 18.703125 -15.375 18.492188 -16.28125 18.078125 -17.15625 C 17.671875 -18.039062 17.0625 -18.757812 16.25 -19.3125 C 15.445312 -19.875 14.488281 -20.15625 13.375 -20.15625 C 11.644531 -20.15625 10.242188 -19.546875 9.171875 -18.328125 C 8.097656 -17.109375 7.578125 -15.601562 7.609375 -13.8125 Z M 17.953125 -13.8125 "/></g></g></g><g fill="#ffffff" fill-opacity="1"><g transform="translate(189.810394, 236.228744)"><g><path d="M 16.59375 0.4375 C 13.6875 0.4375 11.15625 -0.242188 9 -1.609375 C 6.84375 -2.972656 5.175781 -4.90625 4 -7.40625 C 2.832031 -9.914062 2.25 -12.84375 2.25 -16.1875 C 2.25 -19.625 2.851562 -22.617188 4.0625 -25.171875 C 5.28125 -27.722656 7 -29.679688 9.21875 -31.046875 C 11.4375 -32.410156 14.007812 -33.09375 16.9375 -33.09375 C 19.132812 -33.09375 21.148438 -32.65625 22.984375 -31.78125 C 24.816406 -30.914062 26.3125 -29.785156 27.46875 -28.390625 C 28.632812 -27.003906 29.363281 -25.519531 29.65625 -23.9375 L 29.75 -23.453125 C 29.75 -23.160156 29.570312 -22.984375 29.21875 -22.921875 L 24.328125 -22.171875 C 24.097656 -22.171875 23.945312 -22.210938 23.875 -22.296875 C 23.800781 -22.390625 23.734375 -22.554688 23.671875 -22.796875 C 23.410156 -24.410156 22.660156 -25.75 21.421875 -26.8125 C 20.191406 -27.882812 18.65625 -28.421875 16.8125 -28.421875 C 11.644531 -28.421875 9.0625 -24.429688 9.0625 -16.453125 C 9.0625 -12.234375 9.734375 -9.140625 11.078125 -7.171875 C 12.429688 -5.203125 14.398438 -4.21875 16.984375 -4.21875 C 19.035156 -4.21875 20.675781 -4.8125 21.90625 -6 C 23.144531 -7.1875 23.878906 -8.601562 24.109375 -10.25 L 24.15625 -12.015625 C 24.1875 -12.066406 24.203125 -12.140625 24.203125 -12.234375 C 24.203125 -12.460938 24.054688 -12.578125 23.765625 -12.578125 L 17.78125 -12.578125 C 17.539062 -12.578125 17.375 -12.617188 17.28125 -12.703125 C 17.195312 -12.796875 17.15625 -12.976562 17.15625 -13.25 L 17.15625 -16.0625 C 17.15625 -16.414062 17.363281 -16.59375 17.78125 -16.59375 L 29.21875 -16.546875 C 29.570312 -16.546875 29.832031 -16.460938 30 -16.296875 C 30.175781 -16.140625 30.265625 -15.925781 30.265625 -15.65625 L 30.265625 -0.609375 C 30.265625 -0.203125 30.078125 0 29.703125 0 L 28.421875 0 C 28.160156 0 27.945312 -0.0390625 27.78125 -0.125 C 27.625 -0.21875 27.488281 -0.394531 27.375 -0.65625 L 26.40625 -4.140625 C 26.34375 -4.253906 26.273438 -4.300781 26.203125 -4.28125 C 26.128906 -4.269531 26.046875 -4.207031 25.953125 -4.09375 C 23.753906 -1.070312 20.632812 0.4375 16.59375 0.4375 Z M 16.59375 0.4375 "/></g></g></g><g fill="#ffffff" fill-opacity="1"><g transform="translate(222.672537, 236.228744)"><g><path d="M 11.796875 -3.734375 C 13.578125 -3.734375 15.4375 -4.75 17.375 -6.78125 L 17.375 -22.4375 C 17.375 -23.019531 17.710938 -23.3125 18.390625 -23.3125 L 22.359375 -23.3125 C 22.878906 -23.3125 23.140625 -23.035156 23.140625 -22.484375 L 23.0625 -0.703125 C 23.0625 -0.234375 22.851562 0 22.4375 0 L 18.125 0 C 17.71875 0 17.515625 -0.21875 17.515625 -0.65625 L 17.515625 -2.984375 C 17.515625 -3.140625 17.46875 -3.226562 17.375 -3.25 C 17.289062 -3.28125 17.191406 -3.238281 17.078125 -3.125 C 15.722656 -1.832031 14.4375 -0.914062 13.21875 -0.375 C 12 0.164062 10.703125 0.4375 9.328125 0.4375 C 7.335938 0.4375 5.703125 -0.191406 4.421875 -1.453125 C 3.148438 -2.710938 2.515625 -4.398438 2.515625 -6.515625 L 2.515625 -22.390625 C 2.515625 -23.003906 2.820312 -23.3125 3.4375 -23.3125 L 7.484375 -23.3125 C 7.742188 -23.3125 7.929688 -23.242188 8.046875 -23.109375 C 8.171875 -22.984375 8.234375 -22.773438 8.234375 -22.484375 L 8.234375 -7.484375 C 8.234375 -6.335938 8.550781 -5.425781 9.1875 -4.75 C 9.832031 -4.070312 10.703125 -3.734375 11.796875 -3.734375 Z M 11.796875 -3.734375 "/></g></g></g><g fill="#ffffff" fill-opacity="1"><g transform="translate(248.539925, 236.228744)"><g><path d="M 4.625 7.265625 C 3.625 7.265625 2.929688 7.21875 2.546875 7.125 C 2.171875 7.039062 1.984375 6.835938 1.984375 6.515625 L 1.984375 3.703125 C 1.984375 3.253906 2.40625 3.03125 3.25 3.03125 L 6.15625 3.03125 C 7.09375 3.03125 7.898438 2.632812 8.578125 1.84375 C 9.253906 1.050781 9.59375 0.21875 9.59375 -0.65625 C 9.59375 -0.945312 9.546875 -1.226562 9.453125 -1.5 L 1.015625 -22.359375 C 0.984375 -22.410156 0.96875 -22.507812 0.96875 -22.65625 C 0.96875 -22.832031 1.03125 -22.984375 1.15625 -23.109375 C 1.289062 -23.242188 1.460938 -23.3125 1.671875 -23.3125 L 6.25 -23.3125 C 6.457031 -23.3125 6.640625 -23.253906 6.796875 -23.140625 C 6.960938 -23.023438 7.070312 -22.863281 7.125 -22.65625 L 12.578125 -8.1875 C 12.671875 -7.914062 12.789062 -7.78125 12.9375 -7.78125 C 13.082031 -7.78125 13.210938 -7.941406 13.328125 -8.265625 L 18.75 -22.703125 C 18.945312 -23.109375 19.222656 -23.3125 19.578125 -23.3125 L 22.796875 -23.3125 C 23.023438 -23.3125 23.191406 -23.21875 23.296875 -23.03125 C 23.398438 -22.84375 23.40625 -22.644531 23.3125 -22.4375 L 14.078125 0.703125 C 13.347656 2.492188 12.5625 3.859375 11.71875 4.796875 C 10.882812 5.734375 9.914062 6.378906 8.8125 6.734375 C 7.71875 7.085938 6.320312 7.265625 4.625 7.265625 Z M 4.625 7.265625 "/></g></g></g><g fill="#ffffff" fill-opacity="1"><g transform="translate(272.91157, 236.228744)"><g><path d="M 17.03125 -17.5625 C 16.4375 -18.351562 15.671875 -18.984375 14.734375 -19.453125 C 13.796875 -19.921875 12.710938 -20.15625 11.484375 -20.15625 C 10.191406 -20.15625 9.128906 -19.890625 8.296875 -19.359375 C 7.460938 -18.828125 7.046875 -18.140625 7.046875 -17.296875 C 7.046875 -16.796875 7.25 -16.347656 7.65625 -15.953125 C 8.0625 -15.554688 8.8125 -15.210938 9.90625 -14.921875 L 15.140625 -13.515625 C 17.335938 -12.953125 18.945312 -12.097656 19.96875 -10.953125 C 21 -9.804688 21.515625 -8.441406 21.515625 -6.859375 C 21.515625 -5.367188 21.082031 -4.070312 20.21875 -2.96875 C 19.351562 -1.863281 18.148438 -1.019531 16.609375 -0.4375 C 15.066406 0.144531 13.316406 0.4375 11.359375 0.4375 C 8.921875 0.4375 6.789062 -0.0078125 4.96875 -0.90625 C 3.15625 -1.800781 1.863281 -2.96875 1.09375 -4.40625 C 0.976562 -4.632812 0.921875 -4.796875 0.921875 -4.890625 C 0.921875 -5.054688 1.007812 -5.203125 1.1875 -5.328125 L 3.78125 -6.640625 C 3.988281 -6.753906 4.164062 -6.8125 4.3125 -6.8125 C 4.425781 -6.8125 4.554688 -6.738281 4.703125 -6.59375 C 5.410156 -5.601562 6.269531 -4.8125 7.28125 -4.21875 C 8.289062 -3.632812 9.601562 -3.34375 11.21875 -3.34375 C 12.71875 -3.34375 13.941406 -3.597656 14.890625 -4.109375 C 15.847656 -4.628906 16.328125 -5.34375 16.328125 -6.25 C 16.328125 -6.863281 16.066406 -7.382812 15.546875 -7.8125 C 15.035156 -8.238281 14.148438 -8.613281 12.890625 -8.9375 L 8.40625 -9.984375 C 6.175781 -10.515625 4.539062 -11.304688 3.5 -12.359375 C 2.457031 -13.421875 1.9375 -14.769531 1.9375 -16.40625 C 1.9375 -17.84375 2.320312 -19.117188 3.09375 -20.234375 C 3.875 -21.347656 4.988281 -22.210938 6.4375 -22.828125 C 7.894531 -23.453125 9.59375 -23.765625 11.53125 -23.765625 C 13.613281 -23.765625 15.457031 -23.375 17.0625 -22.59375 C 18.675781 -21.8125 19.867188 -20.820312 20.640625 -19.625 C 20.785156 -19.382812 20.859375 -19.191406 20.859375 -19.046875 C 20.859375 -18.898438 20.785156 -18.785156 20.640625 -18.703125 L 17.90625 -17.34375 C 17.726562 -17.28125 17.625 -17.25 17.59375 -17.25 C 17.363281 -17.25 17.175781 -17.351562 17.03125 -17.5625 Z M 17.03125 -17.5625 "/></g></g></g><g fill="#c64fff" fill-opacity="1"><g transform="translate(88.846731, 260.428752)"><g><path d="M 13.828125 -9.59375 C 13.867188 -9.707031 13.9375 -9.796875 14.03125 -9.859375 C 14.125 -9.921875 14.226562 -9.953125 14.34375 -9.953125 C 14.488281 -9.953125 14.613281 -9.90625 14.71875 -9.8125 C 14.820312 -9.726562 14.875 -9.613281 14.875 -9.46875 C 14.875 -9.394531 14.863281 -9.316406 14.84375 -9.234375 L 11.671875 -0.328125 C 11.628906 -0.191406 11.550781 -0.0859375 11.4375 -0.015625 C 11.320312 0.046875 11.195312 0.078125 11.0625 0.078125 C 10.925781 0.078125 10.800781 0.046875 10.6875 -0.015625 C 10.582031 -0.0859375 10.503906 -0.191406 10.453125 -0.328125 L 7.71875 -8.078125 L 4.9375 -0.328125 C 4.894531 -0.191406 4.816406 -0.0859375 4.703125 -0.015625 C 4.585938 0.046875 4.46875 0.078125 4.34375 0.078125 C 4.207031 0.078125 4.082031 0.046875 3.96875 -0.015625 C 3.863281 -0.0859375 3.785156 -0.191406 3.734375 -0.328125 L 0.5625 -9.234375 C 0.53125 -9.316406 0.515625 -9.390625 0.515625 -9.453125 C 0.515625 -9.597656 0.570312 -9.71875 0.6875 -9.8125 C 0.8125 -9.90625 0.945312 -9.953125 1.09375 -9.953125 C 1.207031 -9.953125 1.3125 -9.921875 1.40625 -9.859375 C 1.5 -9.796875 1.566406 -9.707031 1.609375 -9.59375 L 4.375 -1.640625 L 7.171875 -9.5 C 7.210938 -9.644531 7.285156 -9.75 7.390625 -9.8125 C 7.492188 -9.882812 7.609375 -9.921875 7.734375 -9.921875 C 7.847656 -9.921875 7.957031 -9.882812 8.0625 -9.8125 C 8.164062 -9.738281 8.238281 -9.628906 8.28125 -9.484375 L 11.046875 -1.609375 Z M 13.828125 -9.59375 "/></g></g></g><g fill="#c64fff" fill-opacity="1"><g transform="translate(104.252138, 260.428752)"><g><path d="M 6.328125 -1.578125 C 6.429688 -1.578125 6.519531 -1.535156 6.59375 -1.453125 C 6.664062 -1.367188 6.703125 -1.265625 6.703125 -1.140625 C 6.703125 -0.898438 6.539062 -0.679688 6.21875 -0.484375 C 5.882812 -0.296875 5.53125 -0.148438 5.15625 -0.046875 C 4.78125 0.046875 4.414062 0.09375 4.0625 0.09375 C 3.007812 0.09375 2.175781 -0.21875 1.5625 -0.84375 C 0.945312 -1.46875 0.640625 -2.332031 0.640625 -3.4375 C 0.640625 -4.132812 0.773438 -4.75 1.046875 -5.28125 C 1.316406 -5.820312 1.695312 -6.238281 2.1875 -6.53125 C 2.675781 -6.832031 3.234375 -6.984375 3.859375 -6.984375 C 4.742188 -6.984375 5.445312 -6.691406 5.96875 -6.109375 C 6.5 -5.535156 6.765625 -4.753906 6.765625 -3.765625 C 6.765625 -3.578125 6.722656 -3.441406 6.640625 -3.359375 C 6.566406 -3.273438 6.445312 -3.234375 6.28125 -3.234375 L 1.78125 -3.234375 C 1.863281 -1.628906 2.625 -0.828125 4.0625 -0.828125 C 4.425781 -0.828125 4.738281 -0.875 5 -0.96875 C 5.257812 -1.070312 5.539062 -1.207031 5.84375 -1.375 C 6.082031 -1.507812 6.242188 -1.578125 6.328125 -1.578125 Z M 3.875 -6.109375 C 3.28125 -6.109375 2.800781 -5.921875 2.4375 -5.546875 C 2.082031 -5.171875 1.875 -4.644531 1.8125 -3.96875 L 5.765625 -3.96875 C 5.742188 -4.65625 5.570312 -5.179688 5.25 -5.546875 C 4.925781 -5.921875 4.46875 -6.109375 3.875 -6.109375 Z M 3.875 -6.109375 "/></g></g></g><g fill="#c64fff" fill-opacity="1"><g transform="translate(111.626023, 260.428752)"><g><path d="M 4.484375 -6.984375 C 5.078125 -6.984375 5.601562 -6.835938 6.0625 -6.546875 C 6.519531 -6.265625 6.875 -5.851562 7.125 -5.3125 C 7.375 -4.78125 7.5 -4.164062 7.5 -3.46875 C 7.5 -2.757812 7.375 -2.132812 7.125 -1.59375 C 6.875 -1.0625 6.519531 -0.644531 6.0625 -0.34375 C 5.601562 -0.0507812 5.078125 0.09375 4.484375 0.09375 C 3.953125 0.09375 3.484375 -0.0195312 3.078125 -0.25 C 2.679688 -0.488281 2.382812 -0.820312 2.1875 -1.25 L 2.1875 -0.484375 C 2.1875 -0.316406 2.132812 -0.179688 2.03125 -0.078125 C 1.9375 0.015625 1.800781 0.0625 1.625 0.0625 C 1.445312 0.0625 1.304688 0.015625 1.203125 -0.078125 C 1.097656 -0.179688 1.046875 -0.316406 1.046875 -0.484375 L 1.046875 -9.390625 C 1.046875 -9.546875 1.097656 -9.675781 1.203125 -9.78125 C 1.304688 -9.882812 1.445312 -9.9375 1.625 -9.9375 C 1.800781 -9.9375 1.9375 -9.882812 2.03125 -9.78125 C 2.132812 -9.6875 2.1875 -9.554688 2.1875 -9.390625 L 2.1875 -5.640625 C 2.382812 -6.066406 2.679688 -6.394531 3.078125 -6.625 C 3.484375 -6.863281 3.953125 -6.984375 4.484375 -6.984375 Z M 4.25 -0.84375 C 4.914062 -0.84375 5.429688 -1.070312 5.796875 -1.53125 C 6.160156 -1.988281 6.34375 -2.632812 6.34375 -3.46875 C 6.34375 -4.28125 6.160156 -4.910156 5.796875 -5.359375 C 5.429688 -5.804688 4.914062 -6.03125 4.25 -6.03125 C 3.59375 -6.03125 3.082031 -5.804688 2.71875 -5.359375 C 2.363281 -4.910156 2.1875 -4.269531 2.1875 -3.4375 C 2.1875 -2.613281 2.363281 -1.972656 2.71875 -1.515625 C 3.082031 -1.066406 3.59375 -0.84375 4.25 -0.84375 Z M 4.25 -0.84375 "/></g></g></g><g fill="#c64fff" fill-opacity="1"><g transform="translate(119.769478, 260.428752)"><g/></g></g><g fill="#c64fff" fill-opacity="1"><g transform="translate(123.370167, 260.428752)"><g><path d="M 4.484375 -6.984375 C 6.117188 -6.984375 6.9375 -6.082031 6.9375 -4.28125 L 6.9375 -0.484375 C 6.9375 -0.304688 6.882812 -0.171875 6.78125 -0.078125 C 6.6875 0.015625 6.550781 0.0625 6.375 0.0625 C 6.195312 0.0625 6.054688 0.015625 5.953125 -0.078125 C 5.847656 -0.171875 5.796875 -0.304688 5.796875 -0.484375 L 5.796875 -4.21875 C 5.796875 -4.851562 5.671875 -5.3125 5.421875 -5.59375 C 5.171875 -5.882812 4.773438 -6.03125 4.234375 -6.03125 C 3.609375 -6.03125 3.109375 -5.835938 2.734375 -5.453125 C 2.367188 -5.078125 2.1875 -4.5625 2.1875 -3.90625 L 2.1875 -0.484375 C 2.1875 -0.304688 2.132812 -0.171875 2.03125 -0.078125 C 1.9375 0.015625 1.800781 0.0625 1.625 0.0625 C 1.445312 0.0625 1.304688 0.015625 1.203125 -0.078125 C 1.097656 -0.171875 1.046875 -0.304688 1.046875 -0.484375 L 1.046875 -6.390625 C 1.046875 -6.566406 1.097656 -6.703125 1.203125 -6.796875 C 1.304688 -6.898438 1.445312 -6.953125 1.625 -6.953125 C 1.789062 -6.953125 1.921875 -6.898438 2.015625 -6.796875 C 2.117188 -6.703125 2.171875 -6.570312 2.171875 -6.40625 L 2.171875 -5.703125 C 2.390625 -6.117188 2.695312 -6.4375 3.09375 -6.65625 C 3.5 -6.875 3.960938 -6.984375 4.484375 -6.984375 Z M 4.484375 -6.984375 "/></g></g></g><g fill="#c64fff" fill-opacity="1"><g transform="translate(131.317733, 260.428752)"><g><path d="M 6.328125 -1.578125 C 6.429688 -1.578125 6.519531 -1.535156 6.59375 -1.453125 C 6.664062 -1.367188 6.703125 -1.265625 6.703125 -1.140625 C 6.703125 -0.898438 6.539062 -0.679688 6.21875 -0.484375 C 5.882812 -0.296875 5.53125 -0.148438 5.15625 -0.046875 C 4.78125 0.046875 4.414062 0.09375 4.0625 0.09375 C 3.007812 0.09375 2.175781 -0.21875 1.5625 -0.84375 C 0.945312 -1.46875 0.640625 -2.332031 0.640625 -3.4375 C 0.640625 -4.132812 0.773438 -4.75 1.046875 -5.28125 C 1.316406 -5.820312 1.695312 -6.238281 2.1875 -6.53125 C 2.675781 -6.832031 3.234375 -6.984375 3.859375 -6.984375 C 4.742188 -6.984375 5.445312 -6.691406 5.96875 -6.109375 C 6.5 -5.535156 6.765625 -4.753906 6.765625 -3.765625 C 6.765625 -3.578125 6.722656 -3.441406 6.640625 -3.359375 C 6.566406 -3.273438 6.445312 -3.234375 6.28125 -3.234375 L 1.78125 -3.234375 C 1.863281 -1.628906 2.625 -0.828125 4.0625 -0.828125 C 4.425781 -0.828125 4.738281 -0.875 5 -0.96875 C 5.257812 -1.070312 5.539062 -1.207031 5.84375 -1.375 C 6.082031 -1.507812 6.242188 -1.578125 6.328125 -1.578125 Z M 3.875 -6.109375 C 3.28125 -6.109375 2.800781 -5.921875 2.4375 -5.546875 C 2.082031 -5.171875 1.875 -4.644531 1.8125 -3.96875 L 5.765625 -3.96875 C 5.742188 -4.65625 5.570312 -5.179688 5.25 -5.546875 C 4.925781 -5.921875 4.46875 -6.109375 3.875 -6.109375 Z M 3.875 -6.109375 "/></g></g></g><g fill="#c64fff" fill-opacity="1"><g transform="translate(138.691619, 260.428752)"><g><path d="M 6.328125 -1.578125 C 6.429688 -1.578125 6.519531 -1.535156 6.59375 -1.453125 C 6.664062 -1.367188 6.703125 -1.265625 6.703125 -1.140625 C 6.703125 -0.898438 6.539062 -0.679688 6.21875 -0.484375 C 5.882812 -0.296875 5.53125 -0.148438 5.15625 -0.046875 C 4.78125 0.046875 4.414062 0.09375 4.0625 0.09375 C 3.007812 0.09375 2.175781 -0.21875 1.5625 -0.84375 C 0.945312 -1.46875 0.640625 -2.332031 0.640625 -3.4375 C 0.640625 -4.132812 0.773438 -4.75 1.046875 -5.28125 C 1.316406 -5.820312 1.695312 -6.238281 2.1875 -6.53125 C 2.675781 -6.832031 3.234375 -6.984375 3.859375 -6.984375 C 4.742188 -6.984375 5.445312 -6.691406 5.96875 -6.109375 C 6.5 -5.535156 6.765625 -4.753906 6.765625 -3.765625 C 6.765625 -3.578125 6.722656 -3.441406 6.640625 -3.359375 C 6.566406 -3.273438 6.445312 -3.234375 6.28125 -3.234375 L 1.78125 -3.234375 C 1.863281 -1.628906 2.625 -0.828125 4.0625 -0.828125 C 4.425781 -0.828125 4.738281 -0.875 5 -0.96875 C 5.257812 -1.070312 5.539062 -1.207031 5.84375 -1.375 C 6.082031 -1.507812 6.242188 -1.578125 6.328125 -1.578125 Z M 3.875 -6.109375 C 3.28125 -6.109375 2.800781 -5.921875 2.4375 -5.546875 C 2.082031 -5.171875 1.875 -4.644531 1.8125 -3.96875 L 5.765625 -3.96875 C 5.742188 -4.65625 5.570312 -5.179688 5.25 -5.546875 C 4.925781 -5.921875 4.46875 -6.109375 3.875 -6.109375 Z M 3.875 -6.109375 "/></g></g></g><g fill="#c64fff" fill-opacity="1"><g transform="translate(146.065504, 260.428752)"><g><path d="M 6.53125 -9.9375 C 6.707031 -9.9375 6.84375 -9.882812 6.9375 -9.78125 C 7.039062 -9.675781 7.09375 -9.546875 7.09375 -9.390625 L 7.09375 -0.484375 C 7.09375 -0.316406 7.039062 -0.179688 6.9375 -0.078125 C 6.84375 0.015625 6.707031 0.0625 6.53125 0.0625 C 6.351562 0.0625 6.210938 0.015625 6.109375 -0.078125 C 6.015625 -0.179688 5.96875 -0.316406 5.96875 -0.484375 L 5.96875 -1.25 C 5.757812 -0.820312 5.457031 -0.488281 5.0625 -0.25 C 4.664062 -0.0195312 4.203125 0.09375 3.671875 0.09375 C 3.066406 0.09375 2.535156 -0.0507812 2.078125 -0.34375 C 1.628906 -0.644531 1.273438 -1.0625 1.015625 -1.59375 C 0.765625 -2.132812 0.640625 -2.757812 0.640625 -3.46875 C 0.640625 -4.164062 0.765625 -4.78125 1.015625 -5.3125 C 1.273438 -5.851562 1.628906 -6.265625 2.078125 -6.546875 C 2.535156 -6.835938 3.066406 -6.984375 3.671875 -6.984375 C 4.203125 -6.984375 4.664062 -6.863281 5.0625 -6.625 C 5.457031 -6.394531 5.757812 -6.066406 5.96875 -5.640625 L 5.96875 -9.390625 C 5.96875 -9.554688 6.015625 -9.6875 6.109375 -9.78125 C 6.210938 -9.882812 6.351562 -9.9375 6.53125 -9.9375 Z M 3.890625 -0.84375 C 4.554688 -0.84375 5.066406 -1.066406 5.421875 -1.515625 C 5.785156 -1.972656 5.96875 -2.613281 5.96875 -3.4375 C 5.96875 -4.269531 5.785156 -4.910156 5.421875 -5.359375 C 5.066406 -5.804688 4.554688 -6.03125 3.890625 -6.03125 C 3.222656 -6.03125 2.707031 -5.804688 2.34375 -5.359375 C 1.976562 -4.910156 1.796875 -4.28125 1.796875 -3.46875 C 1.796875 -2.632812 1.976562 -1.988281 2.34375 -1.53125 C 2.707031 -1.070312 3.222656 -0.84375 3.890625 -0.84375 Z M 3.890625 -0.84375 "/></g></g></g><g fill="#c64fff" fill-opacity="1"><g transform="translate(154.208959, 260.428752)"><g><path d="M 3.34375 0.09375 C 2.914062 0.09375 2.507812 0.046875 2.125 -0.046875 C 1.738281 -0.148438 1.394531 -0.296875 1.09375 -0.484375 C 0.925781 -0.597656 0.804688 -0.703125 0.734375 -0.796875 C 0.660156 -0.898438 0.625 -1.019531 0.625 -1.15625 C 0.625 -1.28125 0.660156 -1.378906 0.734375 -1.453125 C 0.804688 -1.535156 0.898438 -1.578125 1.015625 -1.578125 C 1.117188 -1.578125 1.28125 -1.507812 1.5 -1.375 C 1.78125 -1.207031 2.054688 -1.070312 2.328125 -0.96875 C 2.609375 -0.875 2.953125 -0.828125 3.359375 -0.828125 C 3.859375 -0.828125 4.25 -0.914062 4.53125 -1.09375 C 4.8125 -1.269531 4.953125 -1.523438 4.953125 -1.859375 C 4.953125 -2.066406 4.898438 -2.234375 4.796875 -2.359375 C 4.691406 -2.484375 4.515625 -2.59375 4.265625 -2.6875 C 4.015625 -2.789062 3.644531 -2.894531 3.15625 -3 C 2.34375 -3.175781 1.757812 -3.410156 1.40625 -3.703125 C 1.050781 -4.003906 0.875 -4.410156 0.875 -4.921875 C 0.875 -5.328125 0.984375 -5.679688 1.203125 -5.984375 C 1.429688 -6.296875 1.742188 -6.539062 2.140625 -6.71875 C 2.535156 -6.894531 2.984375 -6.984375 3.484375 -6.984375 C 3.847656 -6.984375 4.195312 -6.929688 4.53125 -6.828125 C 4.875 -6.734375 5.179688 -6.597656 5.453125 -6.421875 C 5.765625 -6.203125 5.921875 -5.96875 5.921875 -5.71875 C 5.921875 -5.601562 5.882812 -5.503906 5.8125 -5.421875 C 5.738281 -5.335938 5.648438 -5.296875 5.546875 -5.296875 C 5.429688 -5.296875 5.265625 -5.375 5.046875 -5.53125 C 4.773438 -5.695312 4.523438 -5.828125 4.296875 -5.921875 C 4.066406 -6.015625 3.78125 -6.0625 3.4375 -6.0625 C 2.988281 -6.0625 2.628906 -5.960938 2.359375 -5.765625 C 2.097656 -5.566406 1.96875 -5.304688 1.96875 -4.984375 C 1.96875 -4.773438 2.015625 -4.609375 2.109375 -4.484375 C 2.210938 -4.359375 2.378906 -4.242188 2.609375 -4.140625 C 2.835938 -4.046875 3.164062 -3.953125 3.59375 -3.859375 C 4.226562 -3.722656 4.71875 -3.570312 5.0625 -3.40625 C 5.414062 -3.238281 5.664062 -3.03125 5.8125 -2.78125 C 5.96875 -2.539062 6.046875 -2.234375 6.046875 -1.859375 C 6.046875 -1.273438 5.796875 -0.800781 5.296875 -0.4375 C 4.804688 -0.0820312 4.15625 0.09375 3.34375 0.09375 Z M 3.34375 0.09375 "/></g></g></g><g fill="#c64fff" fill-opacity="1"><g transform="translate(160.92521, 260.428752)"><g/></g></g><g fill="#c64fff" fill-opacity="1"><g transform="translate(164.535192, 260.428752)"><g><path d="M 4.0625 -8.96875 C 3.5625 -8.9375 3.1875 -8.78125 2.9375 -8.5 C 2.6875 -8.226562 2.5625 -7.816406 2.5625 -7.265625 L 2.5625 -6.8125 L 4.109375 -6.8125 C 4.273438 -6.8125 4.398438 -6.769531 4.484375 -6.6875 C 4.566406 -6.601562 4.609375 -6.492188 4.609375 -6.359375 C 4.609375 -6.210938 4.566406 -6.101562 4.484375 -6.03125 C 4.398438 -5.957031 4.273438 -5.921875 4.109375 -5.921875 L 2.5625 -5.921875 L 2.5625 -0.484375 C 2.5625 -0.304688 2.503906 -0.171875 2.390625 -0.078125 C 2.285156 0.015625 2.15625 0.0625 2 0.0625 C 1.832031 0.0625 1.691406 0.015625 1.578125 -0.078125 C 1.472656 -0.171875 1.421875 -0.304688 1.421875 -0.484375 L 1.421875 -5.921875 L 0.484375 -5.921875 C 0.328125 -5.921875 0.203125 -5.957031 0.109375 -6.03125 C 0.0234375 -6.113281 -0.015625 -6.222656 -0.015625 -6.359375 C -0.015625 -6.492188 0.0234375 -6.601562 0.109375 -6.6875 C 0.203125 -6.769531 0.328125 -6.8125 0.484375 -6.8125 L 1.421875 -6.8125 L 1.421875 -7.0625 C 1.421875 -7.90625 1.628906 -8.566406 2.046875 -9.046875 C 2.472656 -9.523438 3.078125 -9.796875 3.859375 -9.859375 L 4.234375 -9.890625 C 4.472656 -9.898438 4.644531 -9.875 4.75 -9.8125 C 4.851562 -9.75 4.90625 -9.632812 4.90625 -9.46875 C 4.90625 -9.195312 4.742188 -9.039062 4.421875 -9 Z M 4.0625 -8.96875 "/></g></g></g><g fill="#c64fff" fill-opacity="1"><g transform="translate(169.124627, 260.428752)"><g><path d="M 3.875 0.09375 C 3.226562 0.09375 2.660156 -0.046875 2.171875 -0.328125 C 1.679688 -0.617188 1.300781 -1.03125 1.03125 -1.5625 C 0.769531 -2.101562 0.640625 -2.726562 0.640625 -3.4375 C 0.640625 -4.15625 0.769531 -4.78125 1.03125 -5.3125 C 1.300781 -5.851562 1.679688 -6.265625 2.171875 -6.546875 C 2.660156 -6.835938 3.226562 -6.984375 3.875 -6.984375 C 4.519531 -6.984375 5.085938 -6.835938 5.578125 -6.546875 C 6.078125 -6.265625 6.457031 -5.851562 6.71875 -5.3125 C 6.988281 -4.78125 7.125 -4.15625 7.125 -3.4375 C 7.125 -2.726562 6.988281 -2.101562 6.71875 -1.5625 C 6.457031 -1.03125 6.078125 -0.617188 5.578125 -0.328125 C 5.085938 -0.046875 4.519531 0.09375 3.875 0.09375 Z M 3.875 -0.84375 C 4.550781 -0.84375 5.066406 -1.0625 5.421875 -1.5 C 5.785156 -1.945312 5.96875 -2.59375 5.96875 -3.4375 C 5.96875 -4.269531 5.785156 -4.910156 5.421875 -5.359375 C 5.054688 -5.816406 4.539062 -6.046875 3.875 -6.046875 C 3.21875 -6.046875 2.707031 -5.816406 2.34375 -5.359375 C 1.976562 -4.910156 1.796875 -4.269531 1.796875 -3.4375 C 1.796875 -2.601562 1.972656 -1.960938 2.328125 -1.515625 C 2.691406 -1.066406 3.207031 -0.84375 3.875 -0.84375 Z M 3.875 -0.84375 "/></g></g></g><g fill="#c64fff" fill-opacity="1"><g transform="translate(176.890289, 260.428752)"><g><path d="M 4.421875 -6.953125 C 4.816406 -6.984375 5.015625 -6.828125 5.015625 -6.484375 C 5.015625 -6.335938 4.972656 -6.21875 4.890625 -6.125 C 4.804688 -6.03125 4.660156 -5.976562 4.453125 -5.96875 L 4.03125 -5.921875 C 3.40625 -5.867188 2.941406 -5.644531 2.640625 -5.25 C 2.335938 -4.863281 2.1875 -4.410156 2.1875 -3.890625 L 2.1875 -0.484375 C 2.1875 -0.296875 2.132812 -0.15625 2.03125 -0.0625 C 1.925781 0.0195312 1.789062 0.0625 1.625 0.0625 C 1.457031 0.0625 1.316406 0.015625 1.203125 -0.078125 C 1.097656 -0.171875 1.046875 -0.304688 1.046875 -0.484375 L 1.046875 -6.390625 C 1.046875 -6.566406 1.101562 -6.703125 1.21875 -6.796875 C 1.332031 -6.898438 1.46875 -6.953125 1.625 -6.953125 C 1.769531 -6.953125 1.894531 -6.898438 2 -6.796875 C 2.101562 -6.703125 2.15625 -6.570312 2.15625 -6.40625 L 2.15625 -5.625 C 2.351562 -6.039062 2.628906 -6.351562 2.984375 -6.5625 C 3.347656 -6.78125 3.765625 -6.90625 4.234375 -6.9375 Z M 4.421875 -6.953125 "/></g></g></g><g fill="#c64fff" fill-opacity="1"><g transform="translate(181.829536, 260.428752)"><g/></g></g><g fill="#c64fff" fill-opacity="1"><g transform="translate(185.439517, 260.428752)"><g><path d="M 4.203125 -0.828125 C 4.523438 -0.796875 4.6875 -0.644531 4.6875 -0.375 C 4.6875 -0.21875 4.628906 -0.0976562 4.515625 -0.015625 C 4.398438 0.0546875 4.222656 0.0820312 3.984375 0.0625 L 3.609375 0.046875 C 2.859375 -0.015625 2.304688 -0.238281 1.953125 -0.625 C 1.597656 -1.019531 1.421875 -1.613281 1.421875 -2.40625 L 1.421875 -5.921875 L 0.484375 -5.921875 C 0.328125 -5.921875 0.203125 -5.957031 0.109375 -6.03125 C 0.0234375 -6.113281 -0.015625 -6.222656 -0.015625 -6.359375 C -0.015625 -6.492188 0.0234375 -6.601562 0.109375 -6.6875 C 0.203125 -6.769531 0.328125 -6.8125 0.484375 -6.8125 L 1.421875 -6.8125 L 1.421875 -8.40625 C 1.421875 -8.582031 1.472656 -8.71875 1.578125 -8.8125 C 1.679688 -8.90625 1.820312 -8.953125 2 -8.953125 C 2.164062 -8.953125 2.300781 -8.90625 2.40625 -8.8125 C 2.507812 -8.71875 2.5625 -8.582031 2.5625 -8.40625 L 2.5625 -6.8125 L 4.109375 -6.8125 C 4.265625 -6.8125 4.382812 -6.769531 4.46875 -6.6875 C 4.5625 -6.601562 4.609375 -6.492188 4.609375 -6.359375 C 4.609375 -6.222656 4.5625 -6.113281 4.46875 -6.03125 C 4.382812 -5.957031 4.265625 -5.921875 4.109375 -5.921875 L 2.5625 -5.921875 L 2.5625 -2.359375 C 2.5625 -1.835938 2.664062 -1.460938 2.875 -1.234375 C 3.082031 -1.003906 3.398438 -0.878906 3.828125 -0.859375 Z M 4.203125 -0.828125 "/></g></g></g><g fill="#c64fff" fill-opacity="1"><g transform="translate(190.19686, 260.428752)"><g><path d="M 4.5 -6.984375 C 5.300781 -6.984375 5.90625 -6.753906 6.3125 -6.296875 C 6.726562 -5.847656 6.9375 -5.175781 6.9375 -4.28125 L 6.9375 -0.484375 C 6.9375 -0.304688 6.882812 -0.171875 6.78125 -0.078125 C 6.675781 0.015625 6.539062 0.0625 6.375 0.0625 C 6.195312 0.0625 6.054688 0.015625 5.953125 -0.078125 C 5.847656 -0.171875 5.796875 -0.304688 5.796875 -0.484375 L 5.796875 -4.25 C 5.796875 -4.863281 5.671875 -5.3125 5.421875 -5.59375 C 5.171875 -5.882812 4.773438 -6.03125 4.234375 -6.03125 C 3.609375 -6.03125 3.109375 -5.835938 2.734375 -5.453125 C 2.367188 -5.078125 2.1875 -4.5625 2.1875 -3.90625 L 2.1875 -0.484375 C 2.1875 -0.304688 2.132812 -0.171875 2.03125 -0.078125 C 1.9375 0.015625 1.800781 0.0625 1.625 0.0625 C 1.445312 0.0625 1.304688 0.015625 1.203125 -0.078125 C 1.097656 -0.171875 1.046875 -0.304688 1.046875 -0.484375 L 1.046875 -9.390625 C 1.046875 -9.546875 1.097656 -9.675781 1.203125 -9.78125 C 1.316406 -9.882812 1.457031 -9.9375 1.625 -9.9375 C 1.800781 -9.9375 1.9375 -9.882812 2.03125 -9.78125 C 2.132812 -9.6875 2.1875 -9.554688 2.1875 -9.390625 L 2.1875 -5.71875 C 2.40625 -6.132812 2.710938 -6.445312 3.109375 -6.65625 C 3.515625 -6.875 3.976562 -6.984375 4.5 -6.984375 Z M 4.5 -6.984375 "/></g></g></g><g fill="#c64fff" fill-opacity="1"><g transform="translate(198.144427, 260.428752)"><g><path d="M 6.328125 -1.578125 C 6.429688 -1.578125 6.519531 -1.535156 6.59375 -1.453125 C 6.664062 -1.367188 6.703125 -1.265625 6.703125 -1.140625 C 6.703125 -0.898438 6.539062 -0.679688 6.21875 -0.484375 C 5.882812 -0.296875 5.53125 -0.148438 5.15625 -0.046875 C 4.78125 0.046875 4.414062 0.09375 4.0625 0.09375 C 3.007812 0.09375 2.175781 -0.21875 1.5625 -0.84375 C 0.945312 -1.46875 0.640625 -2.332031 0.640625 -3.4375 C 0.640625 -4.132812 0.773438 -4.75 1.046875 -5.28125 C 1.316406 -5.820312 1.695312 -6.238281 2.1875 -6.53125 C 2.675781 -6.832031 3.234375 -6.984375 3.859375 -6.984375 C 4.742188 -6.984375 5.445312 -6.691406 5.96875 -6.109375 C 6.5 -5.535156 6.765625 -4.753906 6.765625 -3.765625 C 6.765625 -3.578125 6.722656 -3.441406 6.640625 -3.359375 C 6.566406 -3.273438 6.445312 -3.234375 6.28125 -3.234375 L 1.78125 -3.234375 C 1.863281 -1.628906 2.625 -0.828125 4.0625 -0.828125 C 4.425781 -0.828125 4.738281 -0.875 5 -0.96875 C 5.257812 -1.070312 5.539062 -1.207031 5.84375 -1.375 C 6.082031 -1.507812 6.242188 -1.578125 6.328125 -1.578125 Z M 3.875 -6.109375 C 3.28125 -6.109375 2.800781 -5.921875 2.4375 -5.546875 C 2.082031 -5.171875 1.875 -4.644531 1.8125 -3.96875 L 5.765625 -3.96875 C 5.742188 -4.65625 5.570312 -5.179688 5.25 -5.546875 C 4.925781 -5.921875 4.46875 -6.109375 3.875 -6.109375 Z M 3.875 -6.109375 "/></g></g></g><g fill="#c64fff" fill-opacity="1"><g transform="translate(205.518313, 260.428752)"><g/></g></g><g fill="#c64fff" fill-opacity="1"><g transform="translate(209.128294, 260.428752)"><g><path d="M 3.875 0.09375 C 3.226562 0.09375 2.660156 -0.046875 2.171875 -0.328125 C 1.679688 -0.617188 1.300781 -1.03125 1.03125 -1.5625 C 0.769531 -2.101562 0.640625 -2.726562 0.640625 -3.4375 C 0.640625 -4.15625 0.769531 -4.78125 1.03125 -5.3125 C 1.300781 -5.851562 1.679688 -6.265625 2.171875 -6.546875 C 2.660156 -6.835938 3.226562 -6.984375 3.875 -6.984375 C 4.519531 -6.984375 5.085938 -6.835938 5.578125 -6.546875 C 6.078125 -6.265625 6.457031 -5.851562 6.71875 -5.3125 C 6.988281 -4.78125 7.125 -4.15625 7.125 -3.4375 C 7.125 -2.726562 6.988281 -2.101562 6.71875 -1.5625 C 6.457031 -1.03125 6.078125 -0.617188 5.578125 -0.328125 C 5.085938 -0.046875 4.519531 0.09375 3.875 0.09375 Z M 3.875 -0.84375 C 4.550781 -0.84375 5.066406 -1.0625 5.421875 -1.5 C 5.785156 -1.945312 5.96875 -2.59375 5.96875 -3.4375 C 5.96875 -4.269531 5.785156 -4.910156 5.421875 -5.359375 C 5.054688 -5.816406 4.539062 -6.046875 3.875 -6.046875 C 3.21875 -6.046875 2.707031 -5.816406 2.34375 -5.359375 C 1.976562 -4.910156 1.796875 -4.269531 1.796875 -3.4375 C 1.796875 -2.601562 1.972656 -1.960938 2.328125 -1.515625 C 2.691406 -1.066406 3.207031 -0.84375 3.875 -0.84375 Z M 3.875 -0.84375 "/></g></g></g><g fill="#c64fff" fill-opacity="1"><g transform="translate(216.893956, 260.428752)"><g><path d="M 4.484375 -6.984375 C 6.117188 -6.984375 6.9375 -6.082031 6.9375 -4.28125 L 6.9375 -0.484375 C 6.9375 -0.304688 6.882812 -0.171875 6.78125 -0.078125 C 6.6875 0.015625 6.550781 0.0625 6.375 0.0625 C 6.195312 0.0625 6.054688 0.015625 5.953125 -0.078125 C 5.847656 -0.171875 5.796875 -0.304688 5.796875 -0.484375 L 5.796875 -4.21875 C 5.796875 -4.851562 5.671875 -5.3125 5.421875 -5.59375 C 5.171875 -5.882812 4.773438 -6.03125 4.234375 -6.03125 C 3.609375 -6.03125 3.109375 -5.835938 2.734375 -5.453125 C 2.367188 -5.078125 2.1875 -4.5625 2.1875 -3.90625 L 2.1875 -0.484375 C 2.1875 -0.304688 2.132812 -0.171875 2.03125 -0.078125 C 1.9375 0.015625 1.800781 0.0625 1.625 0.0625 C 1.445312 0.0625 1.304688 0.015625 1.203125 -0.078125 C 1.097656 -0.171875 1.046875 -0.304688 1.046875 -0.484375 L 1.046875 -6.390625 C 1.046875 -6.566406 1.097656 -6.703125 1.203125 -6.796875 C 1.304688 -6.898438 1.445312 -6.953125 1.625 -6.953125 C 1.789062 -6.953125 1.921875 -6.898438 2.015625 -6.796875 C 2.117188 -6.703125 2.171875 -6.570312 2.171875 -6.40625 L 2.171875 -5.703125 C 2.390625 -6.117188 2.695312 -6.4375 3.09375 -6.65625 C 3.5 -6.875 3.960938 -6.984375 4.484375 -6.984375 Z M 4.484375 -6.984375 "/></g></g></g><g fill="#c64fff" fill-opacity="1"><g transform="translate(224.841523, 260.428752)"><g><path d="M 1.625 0.0625 C 1.457031 0.0625 1.316406 0.015625 1.203125 -0.078125 C 1.097656 -0.171875 1.046875 -0.304688 1.046875 -0.484375 L 1.046875 -9.375 C 1.046875 -9.550781 1.097656 -9.6875 1.203125 -9.78125 C 1.316406 -9.882812 1.457031 -9.9375 1.625 -9.9375 C 1.78125 -9.9375 1.910156 -9.882812 2.015625 -9.78125 C 2.128906 -9.6875 2.1875 -9.550781 2.1875 -9.375 L 2.1875 -0.484375 C 2.1875 -0.304688 2.128906 -0.171875 2.015625 -0.078125 C 1.910156 0.015625 1.78125 0.0625 1.625 0.0625 Z M 1.625 0.0625 "/></g></g></g><g fill="#c64fff" fill-opacity="1"><g transform="translate(228.087708, 260.428752)"><g><path d="M 1.625 0.0625 C 1.457031 0.0625 1.316406 0.015625 1.203125 -0.078125 C 1.097656 -0.171875 1.046875 -0.304688 1.046875 -0.484375 L 1.046875 -6.390625 C 1.046875 -6.566406 1.097656 -6.703125 1.203125 -6.796875 C 1.316406 -6.898438 1.457031 -6.953125 1.625 -6.953125 C 1.789062 -6.953125 1.925781 -6.898438 2.03125 -6.796875 C 2.132812 -6.703125 2.1875 -6.566406 2.1875 -6.390625 L 2.1875 -0.484375 C 2.1875 -0.296875 2.132812 -0.15625 2.03125 -0.0625 C 1.925781 0.0195312 1.789062 0.0625 1.625 0.0625 Z M 1.625 -8.421875 C 1.394531 -8.421875 1.207031 -8.484375 1.0625 -8.609375 C 0.925781 -8.742188 0.859375 -8.921875 0.859375 -9.140625 C 0.859375 -9.347656 0.925781 -9.515625 1.0625 -9.640625 C 1.207031 -9.773438 1.394531 -9.84375 1.625 -9.84375 C 1.84375 -9.84375 2.019531 -9.773438 2.15625 -9.640625 C 2.300781 -9.515625 2.375 -9.347656 2.375 -9.140625 C 2.375 -8.921875 2.300781 -8.742188 2.15625 -8.609375 C 2.019531 -8.484375 1.84375 -8.421875 1.625 -8.421875 Z M 1.625 -8.421875 "/></g></g></g><g fill="#c64fff" fill-opacity="1"><g transform="translate(231.333893, 260.428752)"><g><path d="M 4.484375 -6.984375 C 6.117188 -6.984375 6.9375 -6.082031 6.9375 -4.28125 L 6.9375 -0.484375 C 6.9375 -0.304688 6.882812 -0.171875 6.78125 -0.078125 C 6.6875 0.015625 6.550781 0.0625 6.375 0.0625 C 6.195312 0.0625 6.054688 0.015625 5.953125 -0.078125 C 5.847656 -0.171875 5.796875 -0.304688 5.796875 -0.484375 L 5.796875 -4.21875 C 5.796875 -4.851562 5.671875 -5.3125 5.421875 -5.59375 C 5.171875 -5.882812 4.773438 -6.03125 4.234375 -6.03125 C 3.609375 -6.03125 3.109375 -5.835938 2.734375 -5.453125 C 2.367188 -5.078125 2.1875 -4.5625 2.1875 -3.90625 L 2.1875 -0.484375 C 2.1875 -0.304688 2.132812 -0.171875 2.03125 -0.078125 C 1.9375 0.015625 1.800781 0.0625 1.625 0.0625 C 1.445312 0.0625 1.304688 0.015625 1.203125 -0.078125 C 1.097656 -0.171875 1.046875 -0.304688 1.046875 -0.484375 L 1.046875 -6.390625 C 1.046875 -6.566406 1.097656 -6.703125 1.203125 -6.796875 C 1.304688 -6.898438 1.445312 -6.953125 1.625 -6.953125 C 1.789062 -6.953125 1.921875 -6.898438 2.015625 -6.796875 C 2.117188 -6.703125 2.171875 -6.570312 2.171875 -6.40625 L 2.171875 -5.703125 C 2.390625 -6.117188 2.695312 -6.4375 3.09375 -6.65625 C 3.5 -6.875 3.960938 -6.984375 4.484375 -6.984375 Z M 4.484375 -6.984375 "/></g></g></g><g fill="#c64fff" fill-opacity="1"><g transform="translate(239.28146, 260.428752)"><g><path d="M 6.328125 -1.578125 C 6.429688 -1.578125 6.519531 -1.535156 6.59375 -1.453125 C 6.664062 -1.367188 6.703125 -1.265625 6.703125 -1.140625 C 6.703125 -0.898438 6.539062 -0.679688 6.21875 -0.484375 C 5.882812 -0.296875 5.53125 -0.148438 5.15625 -0.046875 C 4.78125 0.046875 4.414062 0.09375 4.0625 0.09375 C 3.007812 0.09375 2.175781 -0.21875 1.5625 -0.84375 C 0.945312 -1.46875 0.640625 -2.332031 0.640625 -3.4375 C 0.640625 -4.132812 0.773438 -4.75 1.046875 -5.28125 C 1.316406 -5.820312 1.695312 -6.238281 2.1875 -6.53125 C 2.675781 -6.832031 3.234375 -6.984375 3.859375 -6.984375 C 4.742188 -6.984375 5.445312 -6.691406 5.96875 -6.109375 C 6.5 -5.535156 6.765625 -4.753906 6.765625 -3.765625 C 6.765625 -3.578125 6.722656 -3.441406 6.640625 -3.359375 C 6.566406 -3.273438 6.445312 -3.234375 6.28125 -3.234375 L 1.78125 -3.234375 C 1.863281 -1.628906 2.625 -0.828125 4.0625 -0.828125 C 4.425781 -0.828125 4.738281 -0.875 5 -0.96875 C 5.257812 -1.070312 5.539062 -1.207031 5.84375 -1.375 C 6.082031 -1.507812 6.242188 -1.578125 6.328125 -1.578125 Z M 3.875 -6.109375 C 3.28125 -6.109375 2.800781 -5.921875 2.4375 -5.546875 C 2.082031 -5.171875 1.875 -4.644531 1.8125 -3.96875 L 5.765625 -3.96875 C 5.742188 -4.65625 5.570312 -5.179688 5.25 -5.546875 C 4.925781 -5.921875 4.46875 -6.109375 3.875 -6.109375 Z M 3.875 -6.109375 "/></g></g></g><g fill="#c64fff" fill-opacity="1"><g transform="translate(246.655345, 260.428752)"><g/></g></g><g fill="#c64fff" fill-opacity="1"><g transform="translate(250.265326, 260.428752)"><g><path d="M 10.375 -6.59375 C 10.46875 -6.820312 10.625 -6.9375 10.84375 -6.9375 C 10.976562 -6.9375 11.097656 -6.890625 11.203125 -6.796875 C 11.316406 -6.703125 11.375 -6.582031 11.375 -6.4375 C 11.375 -6.375 11.363281 -6.304688 11.34375 -6.234375 L 9.015625 -0.34375 C 8.960938 -0.226562 8.878906 -0.132812 8.765625 -0.0625 C 8.660156 0.0078125 8.539062 0.046875 8.40625 0.046875 C 8.289062 0.046875 8.175781 0.0078125 8.0625 -0.0625 C 7.957031 -0.132812 7.878906 -0.226562 7.828125 -0.34375 L 5.890625 -5.265625 L 3.96875 -0.34375 C 3.925781 -0.226562 3.847656 -0.132812 3.734375 -0.0625 C 3.617188 0.0078125 3.5 0.046875 3.375 0.046875 C 3.25 0.046875 3.128906 0.0078125 3.015625 -0.0625 C 2.910156 -0.132812 2.828125 -0.226562 2.765625 -0.34375 L 0.453125 -6.21875 C 0.421875 -6.289062 0.40625 -6.351562 0.40625 -6.40625 C 0.40625 -6.5625 0.46875 -6.6875 0.59375 -6.78125 C 0.71875 -6.882812 0.859375 -6.9375 1.015625 -6.9375 C 1.234375 -6.9375 1.390625 -6.828125 1.484375 -6.609375 L 3.40625 -1.4375 L 5.375 -6.5625 C 5.425781 -6.6875 5.5 -6.78125 5.59375 -6.84375 C 5.695312 -6.90625 5.804688 -6.9375 5.921875 -6.9375 C 6.046875 -6.9375 6.15625 -6.90625 6.25 -6.84375 C 6.34375 -6.78125 6.414062 -6.6875 6.46875 -6.5625 L 8.4375 -1.453125 Z M 10.375 -6.59375 "/></g></g></g><g fill="#c64fff" fill-opacity="1"><g transform="translate(262.046755, 260.428752)"><g><path d="M 3.875 0.09375 C 3.226562 0.09375 2.660156 -0.046875 2.171875 -0.328125 C 1.679688 -0.617188 1.300781 -1.03125 1.03125 -1.5625 C 0.769531 -2.101562 0.640625 -2.726562 0.640625 -3.4375 C 0.640625 -4.15625 0.769531 -4.78125 1.03125 -5.3125 C 1.300781 -5.851562 1.679688 -6.265625 2.171875 -6.546875 C 2.660156 -6.835938 3.226562 -6.984375 3.875 -6.984375 C 4.519531 -6.984375 5.085938 -6.835938 5.578125 -6.546875 C 6.078125 -6.265625 6.457031 -5.851562 6.71875 -5.3125 C 6.988281 -4.78125 7.125 -4.15625 7.125 -3.4375 C 7.125 -2.726562 6.988281 -2.101562 6.71875 -1.5625 C 6.457031 -1.03125 6.078125 -0.617188 5.578125 -0.328125 C 5.085938 -0.046875 4.519531 0.09375 3.875 0.09375 Z M 3.875 -0.84375 C 4.550781 -0.84375 5.066406 -1.0625 5.421875 -1.5 C 5.785156 -1.945312 5.96875 -2.59375 5.96875 -3.4375 C 5.96875 -4.269531 5.785156 -4.910156 5.421875 -5.359375 C 5.054688 -5.816406 4.539062 -6.046875 3.875 -6.046875 C 3.21875 -6.046875 2.707031 -5.816406 2.34375 -5.359375 C 1.976562 -4.910156 1.796875 -4.269531 1.796875 -3.4375 C 1.796875 -2.601562 1.972656 -1.960938 2.328125 -1.515625 C 2.691406 -1.066406 3.207031 -0.84375 3.875 -0.84375 Z M 3.875 -0.84375 "/></g></g></g><g fill="#c64fff" fill-opacity="1"><g transform="translate(269.812418, 260.428752)"><g><path d="M 4.421875 -6.953125 C 4.816406 -6.984375 5.015625 -6.828125 5.015625 -6.484375 C 5.015625 -6.335938 4.972656 -6.21875 4.890625 -6.125 C 4.804688 -6.03125 4.660156 -5.976562 4.453125 -5.96875 L 4.03125 -5.921875 C 3.40625 -5.867188 2.941406 -5.644531 2.640625 -5.25 C 2.335938 -4.863281 2.1875 -4.410156 2.1875 -3.890625 L 2.1875 -0.484375 C 2.1875 -0.296875 2.132812 -0.15625 2.03125 -0.0625 C 1.925781 0.0195312 1.789062 0.0625 1.625 0.0625 C 1.457031 0.0625 1.316406 0.015625 1.203125 -0.078125 C 1.097656 -0.171875 1.046875 -0.304688 1.046875 -0.484375 L 1.046875 -6.390625 C 1.046875 -6.566406 1.101562 -6.703125 1.21875 -6.796875 C 1.332031 -6.898438 1.46875 -6.953125 1.625 -6.953125 C 1.769531 -6.953125 1.894531 -6.898438 2 -6.796875 C 2.101562 -6.703125 2.15625 -6.570312 2.15625 -6.40625 L 2.15625 -5.625 C 2.351562 -6.039062 2.628906 -6.351562 2.984375 -6.5625 C 3.347656 -6.78125 3.765625 -6.90625 4.234375 -6.9375 Z M 4.421875 -6.953125 "/></g></g></g><g fill="#c64fff" fill-opacity="1"><g transform="translate(274.751664, 260.428752)"><g><path d="M 1.625 0.0625 C 1.457031 0.0625 1.316406 0.015625 1.203125 -0.078125 C 1.097656 -0.171875 1.046875 -0.304688 1.046875 -0.484375 L 1.046875 -9.375 C 1.046875 -9.550781 1.097656 -9.6875 1.203125 -9.78125 C 1.316406 -9.882812 1.457031 -9.9375 1.625 -9.9375 C 1.78125 -9.9375 1.910156 -9.882812 2.015625 -9.78125 C 2.128906 -9.6875 2.1875 -9.550781 2.1875 -9.375 L 2.1875 -0.484375 C 2.1875 -0.304688 2.128906 -0.171875 2.015625 -0.078125 C 1.910156 0.015625 1.78125 0.0625 1.625 0.0625 Z M 1.625 0.0625 "/></g></g></g><g fill="#c64fff" fill-opacity="1"><g transform="translate(277.99785, 260.428752)"><g><path d="M 6.53125 -9.9375 C 6.707031 -9.9375 6.84375 -9.882812 6.9375 -9.78125 C 7.039062 -9.675781 7.09375 -9.546875 7.09375 -9.390625 L 7.09375 -0.484375 C 7.09375 -0.316406 7.039062 -0.179688 6.9375 -0.078125 C 6.84375 0.015625 6.707031 0.0625 6.53125 0.0625 C 6.351562 0.0625 6.210938 0.015625 6.109375 -0.078125 C 6.015625 -0.179688 5.96875 -0.316406 5.96875 -0.484375 L 5.96875 -1.25 C 5.757812 -0.820312 5.457031 -0.488281 5.0625 -0.25 C 4.664062 -0.0195312 4.203125 0.09375 3.671875 0.09375 C 3.066406 0.09375 2.535156 -0.0507812 2.078125 -0.34375 C 1.628906 -0.644531 1.273438 -1.0625 1.015625 -1.59375 C 0.765625 -2.132812 0.640625 -2.757812 0.640625 -3.46875 C 0.640625 -4.164062 0.765625 -4.78125 1.015625 -5.3125 C 1.273438 -5.851562 1.628906 -6.265625 2.078125 -6.546875 C 2.535156 -6.835938 3.066406 -6.984375 3.671875 -6.984375 C 4.203125 -6.984375 4.664062 -6.863281 5.0625 -6.625 C 5.457031 -6.394531 5.757812 -6.066406 5.96875 -5.640625 L 5.96875 -9.390625 C 5.96875 -9.554688 6.015625 -9.6875 6.109375 -9.78125 C 6.210938 -9.882812 6.351562 -9.9375 6.53125 -9.9375 Z M 3.890625 -0.84375 C 4.554688 -0.84375 5.066406 -1.066406 5.421875 -1.515625 C 5.785156 -1.972656 5.96875 -2.613281 5.96875 -3.4375 C 5.96875 -4.269531 5.785156 -4.910156 5.421875 -5.359375 C 5.066406 -5.804688 4.554688 -6.03125 3.890625 -6.03125 C 3.222656 -6.03125 2.707031 -5.804688 2.34375 -5.359375 C 1.976562 -4.910156 1.796875 -4.28125 1.796875 -3.46875 C 1.796875 -2.632812 1.976562 -1.988281 2.34375 -1.53125 C 2.707031 -1.070312 3.222656 -0.84375 3.890625 -0.84375 Z M 3.890625 -0.84375 "/></g></g></g><g clip-path="url(#a92bd31a42)"><g clip-path="url(#a64d864863)"><path fill="url(#01e6f21d6f)" d="M 228.128906 111.394531 L 147.136719 111.394531 L 147.136719 188.640625 L 228.128906 188.640625 Z M 228.128906 111.394531 " fill-rule="nonzero"/></g></g></svg>